0
SECTION
2
HEADER
9
$INSUNITS
70
4
9
$ACADVER
1
AC1014
9
$HANDSEED
5
FFFF
0
ENDSEC
0
SECTION
2
TABLES
0
TABLE
2
VPORT
5
8
100
AcDbSymbolTable
0
ENDTAB
0
TABLE
2
LTYPE
5
5
100
AcDbSymbolTable
0
LTYPE
5
14
100
AcDbSymbolTableRecord
100
AcDbLinetypeTableRecord
2
BYBLOCK
70
0
0
LTYPE
5
15
100
AcDbSymbolTableRecord
100
AcDbLinetypeTableRecord
2
BYLAYER
70
0
0
ENDTAB
0
TABLE
2
LAYER
5
2
100
AcDbSymbolTable
70
2
0
LAYER
5
50
100
AcDbSymbolTableRecord
100
AcDbLayerTableRecord
2
0
70
0
6
CONTINUOUS
0
ENDTAB
0
TABLE
2
STYLE
5
3
100
AcDbSymbolTable
70
1
0
STYLE
5
11
100
AcDbSymbolTableRecord
100
AcDbTextStyleTableRecord
2
STANDARD
70
0
0
ENDTAB
0
TABLE
2
VIEW
5
6
100
AcDbSymbolTable
70
0
0
ENDTAB
0
TABLE
2
UCS
5
7
100
AcDbSymbolTable
70
0
0
ENDTAB
0
TABLE
2
APPID
5
9
100
AcDbSymbolTable
70
2
0
APPID
5
12
100
AcDbSymbolTableRecord
100
AcDbRegAppTableRecord
2
ACAD
70
0
0
ENDTAB
0
TABLE
2
DIMSTYLE
5
A
100
AcDbSymbolTable
70
1
0
ENDTAB
0
TABLE
2
BLOCK_RECORD
5
1
100
AcDbSymbolTable
70
1
0
BLOCK_RECORD
5
1F
100
AcDbSymbolTableRecord
100
AcDbBlockTableRecord
2
*MODEL_SPACE
0
BLOCK_RECORD
5
1B
100
AcDbSymbolTableRecord
100
AcDbBlockTableRecord
2
*PAPER_SPACE
0
ENDTAB
0
ENDSEC
0
SECTION
2
BLOCKS
0
BLOCK
5
20
100
AcDbEntity
100
AcDbBlockBegin
2
*MODEL_SPACE
0
ENDBLK
5
21
100
AcDbEntity
100
AcDbBlockEnd
0
BLOCK
5
1C
100
AcDbEntity
100
AcDbBlockBegin
2
*PAPER_SPACE
0
ENDBLK
5
1D
100
AcDbEntity
100
AcDbBlockEnd
0
ENDSEC
0
SECTION
2
ENTITIES
0
LWPOLYLINE
5
100
100
AcDbEntity
8
0
100
AcDbPolyline
90
84
70
1
43
0.0
10
198.67248021754708
20
398.44591294750273
10
175.1724802175471
20
398.44591294750273
10
175.1724802175471
20
394.44591197892726
10
160.1724802175471
20
394.44591197892737
10
160.17248021754713
20
398.44591294750279
10
145.17248021754713
20
398.44591294750273
10
145.17248021754713
20
394.44591197892737
10
130.17248021754716
20
394.44591197892737
10
130.17248021754713
20
398.44591294750279
10
115.17248021754716
20
398.44591294750279
10
115.17248021754716
20
394.44591197892737
10
100.17248021754718
20
394.44591197892737
10
100.17248021754718
20
398.44591294750285
10
85.172480217547175
20
398.44591294750279
10
85.172480217547189
20
394.44591197892737
10
70.172480217547218
20
394.44591197892743
10
70.172480217547189
20
398.44591294750285
10
55.172480217547204
20
398.44591294750279
10
55.172480217547211
20
394.44591197892743
10
40.172480217547232
20
394.44591197892743
10
40.172480217547246
20
398.44591294750285
10
16.672480217547264
20
398.44591294750285
10
16.672480217547264
20
419.44591325670171
10
12.672480217547283
20
419.44591325670189
10
12.672480217547303
20
434.44591325670189
10
16.672480217547307
20
434.44591325670189
10
16.672480217547299
20
449.44591325670171
10
12.672480217547319
20
449.44591325670183
10
12.672480217547339
20
464.44591325670183
10
16.672480217547342
20
464.44591325670183
10
16.672480217547353
20
479.44591325670183
10
12.672480217547337
20
479.44591325670171
10
12.672480217547356
20
494.44591325670171
10
16.67248021754736
20
494.44591325670171
10
16.672480217547353
20
509.4459132567016
10
12.672480217547372
20
509.44591325670171
10
12.672480217547392
20
524.44591325670171
10
16.672480217547395
20
524.44591325670171
10
16.672480217547388
20
539.44591325670149
10
12.672480217547408
20
539.44591325670171
10
12.672480217547427
20
554.44591325670171
10
16.672480217547424
20
554.44591325670171
10
16.672480217547431
20
575.4459135659007
10
40.172480217547403
20
575.44591197892703
10
40.172480217547403
20
579.44591294750251
10
55.172480217547388
20
579.44591294750251
10
55.172480217547403
20
575.44591197892703
10
70.172480217547388
20
575.44591197892703
10
70.172480217547388
20
579.44591294750251
10
85.172480217547374
20
579.44591294750251
10
85.172480217547374
20
575.44591197892703
10
100.17248021754736
20
575.44591197892703
10
100.17248021754736
20
579.44591294750251
10
115.17248021754733
20
579.44591294750251
10
115.17248021754736
20
575.44591197892703
10
130.17248021754733
20
575.44591197892703
10
130.17248021754733
20
579.44591294750251
10
145.17248021754733
20
579.44591294750239
10
145.17248021754733
20
575.44591197892692
10
160.17248021754733
20
575.44591197892692
10
160.17248021754727
20
579.44591294750239
10
175.17248021754727
20
579.44591294750239
10
175.17248021754727
20
575.44591197892692
10
198.67248021754727
20
575.44591356590058
10
198.67248021754727
20
554.44591325670149
10
202.67248021754727
20
554.44591325670149
10
202.67248021754915
20
539.44591325670399
10
198.67248021754722
20
539.44591325670149
10
198.67248021754727
20
524.44591325670149
10
202.67248021754722
20
524.4459132567016
10
202.67248021754824
20
509.44591325670399
10
198.67248021754719
20
509.4459132567016
10
198.67248021754719
20
494.4459132567016
10
202.67248021754722
20
494.4459132567016
10
202.67248021754716
20
479.44591325670154
10
198.67248021754719
20
479.44591325670166
10
198.67248021754719
20
464.44591325670166
10
202.67248021754713
20
464.44591325670166
10
202.67248021754654
20
449.44591325670416
10
198.6724802175471
20
449.44591325670171
10
198.67248021754716
20
434.44591325670171
10
202.67248021754713
20
434.44591325670171
10
202.67248021754568
20
419.44591325670416
10
198.6724802175471
20
419.44591325670171
0
LWPOLYLINE
5
101
100
AcDbEntity
8
0
100
AcDbPolyline
90
80
70
1
43
0.0
10
213.03342117453622
20
432.78941356104696
10
209.03342117453622
20
432.78941356104696
10
209.03342117453622
20
447.78941356104696
10
213.03342117453616
20
447.78941356104696
10
213.03342117453616
20
462.78941356104713
10
209.03342117453619
20
462.78941356104713
10
209.03342117453619
20
477.78941356104718
10
213.03342117453613
20
477.78941356104718
10
213.03342117453613
20
492.78941356104724
10
209.03342117453616
20
492.78941356104724
10
209.03342117453616
20
507.78941356104718
10
213.0334211745361
20
507.78941356104718
10
213.0334211745361
20
522.78941356104735
10
209.0334211745361
20
522.78941356104735
10
209.0334211745361
20
537.78941356104735
10
213.03342117453607
20
537.78941356104735
10
213.03342117453607
20
552.78941356104747
10
209.0334211745361
20
552.78941356104747
10
209.03342117453607
20
573.78941387024679
10
223.03342117453604
20
573.78941387024668
10
223.03342117453599
20
577.78941325184849
10
238.03342117453604
20
577.78941325184849
10
238.03342117453604
20
573.78941387024656
10
253.03342117453599
20
573.78941387024656
10
253.03342117453599
20
577.78941325184849
10
268.03342117453604
20
577.78941325184849
10
268.03342117453599
20
573.78941387024656
10
283.03342117453599
20
573.78941387024656
10
283.03342117453599
20
577.78941325184837
10
298.03342117453599
20
577.78941325184837
10
298.03342117453599
20
573.78941387024656
10
313.03341944600129
20
573.78941387024656
10
313.03341944600129
20
577.78941325184837
10
328.03341944600129
20
577.78941325184837
10
328.03341944600129
20
573.78941387024645
10
343.03342117453599
20
573.78941387024645
10
343.03342117453599
20
577.78941325184837
10
358.03342117453599
20
577.78941325184837
10
358.03342117453587
20
573.78941387024634
10
373.03342117453587
20
573.78941387024645
10
373.03342117453587
20
577.78941325184826
10
388.03342117453587
20
577.78941325184826
10
388.03342117453587
20
573.78941387024634
10
403.03342117453587
20
573.78941387024634
10
403.03342117453587
20
577.78941325184826
10
418.03342117453587
20
577.78941325184826
10
418.03342117453582
20
573.78941387024634
10
429.03342117453582
20
573.78941387024634
10
429.0334211745361
20
396.78941325184746
10
418.0334211745361
20
396.78941325184746
10
418.0334211745361
20
392.78941325184746
10
403.0334211745361
20
392.78941325184746
10
403.0334211745361
20
396.78941325184752
10
388.0334211745361
20
396.78941325184746
10
388.0334211745361
20
392.78941325184746
10
373.0334211745361
20
392.78941325184752
10
373.0334211745361
20
396.78941325184752
10
358.0334211745361
20
396.78941325184752
10
358.03342117453616
20
392.78941325184752
10
343.03342117453616
20
392.78941325184758
10
343.03342117453616
20
396.78941325184758
10
328.03341944600152
20
396.78941325184758
10
328.03341944600152
20
392.78941325184758
10
313.03341944600152
20
392.78941325184758
10
313.03341944600146
20
396.78941325184769
10
298.03342117453616
20
396.78941325184758
10
298.03342117453622
20
392.78941325184758
10
283.03342117453622
20
392.78941325184769
10
283.03342117453622
20
396.78941325184769
10
268.03342117453622
20
396.78941325184769
10
268.03342117453622
20
392.78941325184769
10
253.03342117453622
20
392.78941325184769
10
253.03342117453622
20
396.78941325184775
10
238.03342117453622
20
396.78941325184769
10
238.03342117453624
20
392.78941325184775
10
223.03342117453624
20
392.78941325184775
10
223.03342117453624
20
396.78941325184775
10
209.0334211745363
20
396.7894132518478
10
209.03342117453627
20
417.78941356104679
10
213.03342117453622
20
417.78941356104679
0
LWPOLYLINE
5
102
100
AcDbEntity
8
0
100
AcDbPolyline
90
80
70
1
43
0.0
10
229.68690486487387
20
105.01774946975144
10
225.68690486487387
20
105.01774946975144
10
225.68690486487387
20
90.017749469751578
10
229.68690486487387
20
90.017749469751578
10
229.68690486487387
20
75.017749469751706
10
225.68690486487387
20
75.017749469751692
10
225.68690486487387
20
60.017749469751834
10
229.68690486487387
20
60.017749469751827
10
229.68690486487387
20
45.017749469751969
10
225.6869048648739
20
45.017749469751969
10
225.6869048648739
20
30.017749469752118
10
229.6869048648739
20
30.017749469752108
10
229.6869048648739
20
9.0177491605532332
10
215.68690486487395
20
9.0177491605532456
10
215.68690486487395
20
5.0177491605532811
10
200.68690486487398
20
5.0177491605532953
10
200.68690486487401
20
9.0177491605532669
10
185.68690486487407
20
9.0177491605532811
10
185.68690486487407
20
5.0177491605533078
10
170.68690486487409
20
5.017749160553322
10
170.68690486487409
20
9.0177491605532936
10
155.68690486487409
20
9.0177491605533078
10
155.68690486487412
20
5.0177491605533433
10
140.68690486487415
20
5.0177491605533575
10
140.68690486487415
20
9.0177491605533202
10
125.68690486487419
20
9.0177491605533344
10
125.68690486487419
20
5.0177491605533699
10
110.68690486487425
20
5.0177491605533842
10
110.68690486487424
20
9.0177491605533557
10
95.686904864874279
20
9.0177491605533699
10
95.686904864874293
20
5.0177491605533966
10
80.686904864874336
20
5.0177491605534108
10
80.686904864874336
20
9.0177491605533824
10
65.686904864874379
20
9.0177491605533966
10
65.686904864874379
20
5.0177491605534321
10
50.686904864874414
20
5.0177491605534463
10
50.686904864874407
20
9.017749160553409
10
35.686904864874464
20
9.0177491605534232
10
35.686904864874464
20
5.0177491605534588
10
20.686904864874499
20
5.017749160553473
10
20.686904864874499
20
9.0177491605534392
10
9.6869048648745348
20
9.0177491605534854
10
9.6869048648744425
20
186.01774977895002
10
20.686904864874407
20
186.01774977895002
10
20.686904864874407
20
190.0177491605518
10
35.686904864874364
20
190.0177491605518
10
35.686904864874371
20
186.01774977894996
10
50.686904864874322
20
186.01774977894996
10
50.686904864874322
20
190.01774916055177
10
65.686904864874279
20
190.01774916055177
10
65.686904864874279
20
186.01774977894996
10
80.686904864874236
20
186.01774977894996
10
80.686904864874236
20
190.01774916055172
10
95.686904864874194
20
190.01774916055172
10
95.686904864874194
20
186.01774977894991
10
110.68690486487415
20
186.01774977894991
10
110.68690486487415
20
190.01774916055169
10
125.68690486487411
20
190.01774916055169
10
125.68690486487412
20
186.01774977894991
10
140.68690486487407
20
186.01774977894991
10
140.68690486487407
20
190.01774916055169
10
155.68690486487401
20
190.01774916055169
10
155.68690486487401
20
186.01774977894988
10
170.68690486487398
20
186.01774977894988
10
170.68690486487398
20
190.0177491605516
10
185.68690486487395
20
190.0177491605516
10
185.6869048648739
20
186.01774977894985
10
200.68690486487387
20
186.01774977894985
10
200.68690486487387
20
190.0177491605516
10
215.68690486487384
20
190.0177491605516
10
215.68690486487384
20
186.01774977894985
10
229.68690486487384
20
186.01774977894979
10
229.68690486487384
20
165.0177494697509
10
225.68690486487384
20
165.0177494697509
10
225.68690486487384
20
150.01774946975104
10
229.68690486487384
20
150.01774946975101
10
229.68690486487384
20
135.01774946975115
10
225.68690486487384
20
135.01774946975115
10
225.68690486487384
20
120.01774946975129
10
229.68690486487387
20
120.01774946975131
0
LWPOLYLINE
5
103
100
AcDbEntity
8
0
100
AcDbPolyline
90
40
70
1
43
0.0
10
91.550874719125517
20
197.14051429286911
10
91.550874719125517
20
201.14051429286906
10
76.550874719126071
20
201.14051429286906
10
76.550874719126071
20
212.00929792068337
10
86.550874719125716
20
216.67237450223328
10
86.550874719125673
20
222.14051460206781
10
90.550874719125559
20
222.14051460206781
10
90.550874719125559
20
237.14051460206761
10
86.550874719125687
20
237.14051460206761
10
86.550874719125673
20
252.14051460206741
10
90.550874719125517
20
252.14051460206741
10
90.550874719125517
20
267.14051460206719
10
86.550874719125673
20
267.14051460206719
10
86.550874719125645
20
282.14051460206696
10
90.550874719125517
20
282.14051460206696
10
90.550874719125503
20
297.14051460206679
10
86.550874719125645
20
297.14051460206679
10
86.55087471912563
20
312.14051460206656
10
90.550874719125488
20
312.14051460206656
10
90.550874719125488
20
327.14051460206633
10
86.55087471912563
20
327.14051460206633
10
86.550874719125602
20
342.1405146020661
10
90.55087471912546
20
342.1405146020661
10
90.550874719125446
20
357.14051460206588
10
86.550874719125588
20
357.14051460206588
10
86.550874719125588
20
362.61409383347421
10
76.550874719125943
20
367.27717041502416
10
76.550874719125929
20
378.14051491126475
10
91.550874719125389
20
378.14051491126469
10
91.550874719125375
20
382.1405142928665
10
106.55087471912486
20
382.14051429286656
10
106.55087471912486
20
378.14051491126475
10
121.55087471912431
20
378.14051491126469
10
121.55087471912431
20
382.1405142928665
10
136.55087471912378
20
382.1405142928665
10
136.55087471912393
20
197.14051429286911
10
121.55087471912445
20
197.14051429286911
10
121.55087471912445
20
201.14051429286906
10
106.55087471912498
20
201.14051429286906
10
106.55087471912498
20
197.14051429286911
0
LWPOLYLINE
5
104
100
AcDbEntity
8
0
100
AcDbPolyline
90
40
70
1
43
0.0
10
60.164394004917142
20
295.23333590728902
10
56.164394004917185
20
295.23333590728902
10
56.164394004917199
20
280.23333590728902
10
60.164394004917142
20
280.23333590728902
10
60.164394004917135
20
265.2333359072889
10
56.164394004917177
20
265.2333359072889
10
56.164394004917185
20
250.23333590728879
10
60.164394004917142
20
250.23333590728873
10
60.164394004917135
20
235.23333590728882
10
56.16439400491717
20
235.23333590728882
10
56.164394004917177
20
220.23333590728868
10
60.164394004917135
20
220.23333590728868
10
60.164394004917121
20
214.76519580745415
10
70.164394004917028
20
210.10211922590415
10
70.164394004917028
20
199.23333559808967
10
55.164394004917192
20
199.23333559808967
10
55.164394004917192
20
195.23333559808964
10
40.164394004917348
20
195.23333559808964
10
40.164394004917348
20
199.23333559808967
10
25.164394004917501
20
199.23333559808967
10
25.164394004917501
20
195.23333559808964
10
10.164394004917664
20
195.23333559808961
10
10.164394004917707
20
380.23333559809021
10
25.164394004917547
20
380.23333559809021
10
25.164394004917547
20
376.23333621648834
10
40.164394004917384
20
376.23333621648834
10
40.164394004917384
20
380.23333559809021
10
55.164394004917227
20
380.23333559809021
10
55.164394004917213
20
376.2333362164884
10
70.164394004917057
20
376.2333362164884
10
70.164394004917071
20
365.36999172024764
10
60.16439400491717
20
360.70691513869758
10
60.164394004917163
20
355.23333590728924
10
56.164394004917199
20
355.23333590728919
10
56.164394004917206
20
340.23333590728902
10
60.164394004917163
20
340.23333590728902
10
60.164394004917156
20
325.23333590728907
10
56.164394004917185
20
325.23333590728907
10
56.164394004917199
20
310.23333590728896
10
60.164394004917156
20
310.23333590728896
0
CIRCLE
5
105
100
AcDbEntity
8
0
100
AcDbCircle
10
148.05510256261044
20
369.21626409695017
30
0
40
1.5000000000000036
210
0
220
-0
230
1
0
CIRCLE
5
106
100
AcDbEntity
8
0
100
AcDbCircle
10
148.05510256261127
20
205.42946691414838
30
0
40
1.5000000000000036
210
0
220
-0
230
1
0
LWPOLYLINE
5
107
100
AcDbEntity
8
0
100
AcDbPolyline
90
6
70
1
43
0.0
10
142.44850084481314
20
199.82286519635016
10
142.44850084481226
20
374.82286581474841
10
177.44850084481192
20
374.82286581474824
10
177.44850084481197
20
314.12413600396985
42
0.34641016151378701
10
177.44850084481268
20
227.52159562552629
10
177.44850084481283
20
199.82286519635005
0
CIRCLE
5
108
100
AcDbEntity
8
0
100
AcDbCircle
10
216.50442467203573
20
367.75846876761761
30
0
40
1.5000000000000151
210
-0
220
0
230
1
0
CIRCLE
5
109
100
AcDbEntity
8
0
100
AcDbCircle
10
216.50442467203575
20
203.9716715848146
30
0
40
1.5000000000000151
210
-0
220
0
230
1
0
LWPOLYLINE
5
110
100
AcDbEntity
8
0
100
AcDbPolyline
90
6
70
1
43
0.0
10
187.1110263898338
20
198.3650698670163
10
187.11102638983385
20
226.06380029619274
42
0.3464101615137769
10
187.11102638983377
20
312.66634067463735
10
187.11102638983377
20
373.36507048541586
10
222.11102638983397
20
373.36507048541591
10
222.11102638983402
20
198.36506986701633
0
CIRCLE
5
111
100
AcDbEntity
8
0
100
AcDbCircle
10
261.26601122193938
20
369.81647609549327
30
0
40
1.5000000000000047
210
-0
220
0
230
1
0
CIRCLE
5
112
100
AcDbEntity
8
0
100
AcDbCircle
10
261.26601122193853
20
206.02967891269168
30
0
40
1.5000000000000047
210
-0
220
0
230
1
0
LWPOLYLINE
5
113
100
AcDbEntity
8
0
100
AcDbPolyline
90
6
70
1
43
0.0
10
231.87261293973674
20
200.42307719489347
10
231.87261293973688
20
228.12180762406967
42
0.34641016151377935
10
231.87261293973731
20
314.72434800251347
10
231.87261293973759
20
375.42307781329151
10
266.87261293973768
20
375.42307781329151
10
266.87261293973677
20
200.42307719489347
0
CIRCLE
5
114
100
AcDbEntity
8
0
100
AcDbCircle
10
281.66831593925912
20
370.87622433947149
30
0
40
1.5000000000000027
210
-0
220
0
230
1
0
CIRCLE
5
115
100
AcDbEntity
8
0
100
AcDbCircle
10
281.66831593925883
20
207.08942715667229
30
0
40
1.5000000000000027
210
-0
220
0
230
1
0
LWPOLYLINE
5
116
100
AcDbEntity
8
0
100
AcDbPolyline
90
8
70
1
43
0.0
10
276.06171422146087
20
376.48282605726956
10
311.06171422146087
20
376.48282605726945
10
311.06171422146082
20
334.48282605727007
10
286.06171422146087
20
334.48282605727013
10
286.06171422146059
20
210.48282605727218
10
311.06171422146053
20
210.48282605727209
10
311.06171422146053
20
201.48282543887407
10
276.06171422146053
20
201.48282543887416
0
CIRCLE
5
117
100
AcDbEntity
8
0
100
AcDbCircle
10
360.8943235285011
20
370.01110847273645
30
0
40
1.4999999999999991
210
-0
220
0
230
1
0
CIRCLE
5
118
100
AcDbEntity
8
0
100
AcDbCircle
10
360.89432352850059
20
206.2243112899354
30
0
40
1.4999999999999991
210
-0
220
0
230
1
0
LWPOLYLINE
5
119
100
AcDbEntity
8
0
100
AcDbPolyline
90
8
70
1
43
0.0
10
331.5009252462994
20
375.61771019053475
10
366.50092524629935
20
375.61771019053469
10
366.50092524629883
20
200.61770957213722
10
331.50092524629889
20
200.61770957213724
10
331.50092524629889
20
209.6177101905354
10
356.50092524629889
20
209.61771019053538
10
356.50092524629918
20
333.61771019053486
10
331.50092524629929
20
333.61771019053486
0
CIRCLE
5
120
100
AcDbEntity
8
0
100
AcDbCircle
10
340.44180936903132
20
316.77480066615021
30
0
40
1.499999999999966
210
-0
220
0
230
1
0
LWPOLYLINE
5
121
100
AcDbEntity
8
0
100
AcDbPolyline
90
3
70
1
43
0.0
10
347.04841108682933
20
323.38140238394817
10
347.04841108682928
20
301.38140300234687
10
325.04841232362628
20
323.38140238394828
0
LWPOLYLINE
5
122
100
AcDbEntity
8
0
100
AcDbPolyline
90
3
70
1
43
0.0
10
303.88208372875147
20
281.13940882335811
10
303.88208372875147
20
303.13940820495992
10
325.88208372875113
20
303.13940820495992
0
CIRCLE
5
123
100
AcDbEntity
8
0
100
AcDbCircle
10
310.4886854465496
20
296.53280648716179
30
0
40
1.5000000000000031
210
0
220
-0
230
1
0
CIRCLE
5
124
100
AcDbEntity
8
0
100
AcDbCircle
10
301.6389737514092
20
233.38132344813471
30
0
40
1.5000000000000122
210
-0
220
0
230
1
0
LWPOLYLINE
5
125
100
AcDbEntity
8
0
100
AcDbPolyline
90
3
70
1
43
0.0
10
295.03237203361107
20
226.77472173033649
10
295.03237203361107
20
248.7747223487348
10
317.03237203361078
20
226.77472173033641
0
CIRCLE
5
126
100
AcDbEntity
8
0
100
AcDbCircle
10
301.6389737514092
20
233.38132344813471
30
0
40
1.5000000000000122
210
-0
220
0
230
1
0
CIRCLE
5
127
100
AcDbEntity
8
0
100
AcDbCircle
10
340.33702438056594
20
225.63798712947903
30
0
40
1.4999999999999818
210
0
220
0
230
1
0
LWPOLYLINE
5
128
100
AcDbEntity
8
0
100
AcDbPolyline
90
3
70
1
43
0.0
10
346.94362609836401
20
241.03138355648625
10
346.94362609836401
20
219.03138541168093
10
324.94362733516073
20
219.03138541168087
0
CIRCLE
5
129
100
AcDbEntity
8
0
100
AcDbCircle
10
312.53552983236023
20
83.839546078574813
30
0
40
1.7500000260770312
210
-0
220
0
230
1
0
CIRCLE
5
130
100
AcDbEntity
8
0
100
AcDbCircle
10
362.03552964795836
20
83.839546078574884
30
0
40
1.749999960884451
210
-0
220
0
230
1
0
CIRCLE
5
131
100
AcDbEntity
8
0
100
AcDbCircle
10
421.6789284833655
20
182.23294436077674
30
0
40
1.5000000000000031
210
-0
220
0
230
1
0
CIRCLE
5
132
100
AcDbEntity
8
0
100
AcDbCircle
10
421.67892848336578
20
18.446147177975043
30
0
40
1.5000000000000031
210
-0
220
0
230
1
0
CIRCLE
5
133
100
AcDbEntity
8
0
100
AcDbCircle
10
252.89213191896204
20
182.23294436077649
30
0
40
1.5000000000000031
210
-0
220
0
230
1
0
CIRCLE
5
134
100
AcDbEntity
8
0
100
AcDbCircle
10
252.89213191896232
20
18.446147177974748
30
0
40
1.5000000000000031
210
-0
220
0
230
1
0
CIRCLE
5
135
100
AcDbEntity
8
0
100
AcDbCircle
10
337.28553020116379
20
173.83954607857481
30
0
40
2.9999999999999991
210
-0
220
0
230
1
0
CIRCLE
5
136
100
AcDbEntity
8
0
100
AcDbCircle
10
337.28553020116379
20
158.8395471961619
30
0
40
1.4999999999999978
210
-0
220
0
230
1
0
CIRCLE
5
137
100
AcDbEntity
8
0
100
AcDbCircle
10
337.28553020116397
20
83.839546078574841
30
0
40
4.9999999999999982
210
0
220
-0
230
1
0
LWPOLYLINE
5
138
100
AcDbEntity
8
0
100
AcDbPolyline
90
4
70
1
43
0.0
10
242.28553020116411
20
7.839545460176538
10
242.28553020116379
20
192.83954607857467
10
432.28553020116374
20
192.83954607857498
10
432.28553020116402
20
7.8395454601768453
0
CIRCLE
5
139
100
AcDbEntity
8
0
100
AcDbCircle
10
410.93498238324884
20
372.0364061333749
30
0
40
1.4999999999999991
210
0
220
-0
230
1
0
CIRCLE
5
140
100
AcDbEntity
8
0
100
AcDbCircle
10
410.93498238324565
20
208.24960895057362
30
0
40
1.4999999999999991
210
0
220
-0
230
1
0
LWPOLYLINE
5
141
100
AcDbEntity
8
0
100
AcDbPolyline
90
6
70
1
43
0.0
10
416.54158410104708
20
377.64300785117302
10
416.54158410104367
20
202.64300723277535
10
381.54158410104407
20
202.64300723277591
10
381.54158410104429
20
230.34173766195164
42
0.34641016151378029
10
381.54158410104634
20
316.9442780403956
10
381.54158410104748
20
377.64300785117359
0
LWPOLYLINE
5
142
100
AcDbEntity
8
0
100
AcDbPolyline
90
80
70
1
43
0.0
10
559.26582949156671
20
11.426814649927341
10
559.26582949156671
20
7.4268146499273513
10
544.26582949156671
20
7.4268146499273113
10
544.26582949156671
20
11.426814649927302
10
529.26582949156671
20
11.42681464992727
10
529.26582949156671
20
7.4268146499272802
10
514.26582949156671
20
7.4268146499272403
10
514.26582949156659
20
11.426814649927231
10
499.26582949156659
20
11.426814649927199
10
499.26582949156659
20
7.4268146499272092
10
484.26582949156659
20
7.4268146499271692
10
484.26582949156659
20
11.426814649927159
10
469.26582949156659
20
11.426814649927127
10
469.26582949156654
20
7.426814649927131
10
441.76582949156654
20
7.4268146499270866
10
441.76582949156659
20
21.426814649927081
10
445.76582949156659
20
21.426814649927071
10
445.76582949156654
20
36.426814649927096
10
441.76582949156654
20
36.426814649927067
10
441.76582949156659
20
51.426814649927081
10
445.76582949156659
20
51.42681464992711
10
445.76582949156654
20
66.426814649927138
10
441.76582949156654
20
66.426814649927124
10
441.76582949156659
20
81.426814649927138
10
445.76582949156659
20
81.426814649927167
10
445.76582949156654
20
96.426814649927195
10
441.76582949156654
20
96.426814649927181
10
441.76582949156659
20
111.42681292139247
10
445.76582807595628
20
111.4268129213925
10
445.76582807595622
20
126.42681292139252
10
441.76582807595622
20
126.42681292139251
10
441.76582949156659
20
141.42681464992722
10
445.76582949156659
20
141.42681464992722
10
445.76582949156654
20
156.42681464992725
10
441.76582949156654
20
156.42681464992725
10
441.76582949156659
20
171.42681464992728
10
445.76582949156659
20
171.42681464992728
10
445.76582949156654
20
186.42681464992728
10
441.76582949156654
20
186.42681464992728
10
441.76582949156654
20
201.42681464992731
10
445.76582949156654
20
201.42681464992728
10
445.76582949156654
20
216.42681464992731
10
441.76582949156654
20
216.42681464992731
10
441.76582949156654
20
227.42681464992731
10
631.76582949156671
20
227.42681464992779
10
631.76582949156659
20
216.42681464992773
10
627.76582949156659
20
216.42681464992776
10
627.76582949156671
20
201.42681464992773
10
631.76582949156671
20
201.42681464992776
10
631.76582949156659
20
186.42681464992768
10
627.76582949156659
20
186.42681464992768
10
627.76582949156671
20
171.42681464992768
10
631.76582949156671
20
171.42681464992768
10
631.76582949156659
20
156.42681464992768
10
627.76582949156659
20
156.42681464992768
10
627.76582949156671
20
141.42681464992765
10
631.76582949156671
20
141.42681464992768
10
631.76582949156659
20
126.42681464992765
10
627.76582949156659
20
126.42681464992764
10
627.76582949156671
20
111.42681464992762
10
631.76582949156671
20
111.42681464992764
10
631.76582949156659
20
96.426814649927621
10
627.76582949156659
20
96.426814649927607
10
627.76582949156671
20
81.426814649927593
10
631.76582949156671
20
81.426814649927593
10
631.76582949156671
20
66.426814649927564
10
627.76582949156671
20
66.426814649927536
10
627.76582949156671
20
51.426814649927508
10
631.76582949156671
20
51.426814649927536
10
631.76582949156671
20
36.426814649927522
10
627.76582949156671
20
36.426814649927536
10
627.76582949156671
20
21.426814649927508
10
631.76582949156671
20
21.426814649927497
10
631.76582949156671
20
7.4268146499275218
10
604.26582949156671
20
7.4268146499274534
10
604.26582949156671
20
11.426814649927444
10
589.26582949156671
20
11.426814649927412
10
589.26582949156671
20
7.4268146499274224
10
574.26582949156671
20
7.4268146499273824
10
574.26582949156671
20
11.426814649927373
0
LWPOLYLINE
5
143
100
AcDbEntity
8
0
100
AcDbPolyline
90
8
70
1
43
0.0
10
488.76582949156665
20
42.426814649927202
10
584.76582949156671
20
42.426814649927422
42
0.41421356237309581
10
591.76582949156671
20
49.426814649927437
10
591.76582949156671
20
185.42681464992762
42
0.41421356237309503
10
584.76582949156659
20
192.42681464992759
10
488.76582949156659
20
192.42681464992739
42
0.41421356237309503
10
481.76582949156654
20
185.42681464992739
10
481.76582949156659
20
49.426814649927174
42
0.41421356237309392
0
LWPOLYLINE
5
144
100
AcDbEntity
8
0
100
AcDbPolyline
90
6
70
1
43
0.0
10
529.54529643286128
20
334.26636041930408
10
526.54529643286116
20
339.46251284201077
10
520.54529643286105
20
339.46251284201077
10
517.54529643286105
20
334.26636041930402
10
520.54529643286105
20
329.07020799659733
10
526.54529643286116
20
329.07020799659739
0
LWPOLYLINE
5
145
100
AcDbEntity
8
0
100
AcDbPolyline
90
6
70
1
43
0.0
10
509.54529643286099
20
335.57020799659745
10
515.54529643286105
20
335.57020799659745
10
518.54529643286105
20
340.76636041930414
10
515.54529643286105
20
345.96251284201082
10
509.54529643286099
20
345.96251284201082
10
506.54529643286094
20
340.76636041930414
0
LWPOLYLINE
5
146
100
AcDbEntity
8
0
100
AcDbPolyline
90
6
70
1
43
0.0
10
553.83848360470301
20
335.57020799659745
10
559.83848360470301
20
335.57020799659745
10
562.83848360470313
20
340.76636041930414
10
559.83848360470301
20
345.96251284201082
10
553.83848360470301
20
345.96251284201082
10
550.8384836047029
20
340.76636041930414
0
LWPOLYLINE
5
147
100
AcDbEntity
8
0
100
AcDbPolyline
90
6
70
1
43
0.0
10
540.83848360470279
20
301.76636041930374
10
537.83848360470279
20
306.96251284201043
10
531.83848360470267
20
306.96251284201037
10
528.83848360470267
20
301.76636041930374
10
531.83848360470267
20
296.57020799659705
10
537.83848360470279
20
296.57020799659711
0
LWPOLYLINE
5
148
100
AcDbEntity
8
0
100
AcDbPolyline
90
6
70
1
43
0.0
10
509.54529643286099
20
322.57020799659728
10
515.54529643286105
20
322.57020799659728
10
518.54529643286105
20
327.76636041930402
10
515.54529643286105
20
332.96251284201071
10
509.54529643286099
20
332.96251284201071
10
506.54529643286094
20
327.76636041930396
0
LWPOLYLINE
5
149
100
AcDbEntity
8
0
100
AcDbPolyline
90
6
70
1
43
0.0
10
526.54529643286116
20
303.07020799659716
10
529.54529643286128
20
308.26636041930379
10
526.54529643286116
20
313.46251284201048
10
520.54529643286105
20
313.46251284201048
10
517.54529643286105
20
308.26636041930379
10
520.54529643286105
20
303.07020799659716
0
LWPOLYLINE
5
150
100
AcDbEntity
8
0
100
AcDbPolyline
90
6
70
1
43
0.0
10
553.83848360470301
20
322.57020799659733
10
559.83848360470301
20
322.57020799659733
10
562.83848360470313
20
327.76636041930402
10
559.83848360470301
20
332.96251284201071
10
553.83848360470301
20
332.96251284201071
10
550.8384836047029
20
327.76636041930402
0
LWPOLYLINE
5
151
100
AcDbEntity
8
0
100
AcDbPolyline
90
6
70
1
43
0.0
10
529.54529643286128
20
347.26636041930419
10
526.54529643286116
20
352.46251284201088
10
520.54529643286105
20
352.46251284201088
10
517.54529643286105
20
347.26636041930419
10
520.54529643286105
20
342.0702079965975
10
526.54529643286116
20
342.0702079965975
0
LWPOLYLINE
5
152
100
AcDbEntity
8
0
100
AcDbPolyline
90
6
70
1
43
0.0
10
528.83848360470267
20
327.76636041930402
10
531.83848360470267
20
322.57020799659733
10
537.83848360470279
20
322.57020799659733
10
540.83848360470279
20
327.76636041930402
10
537.83848360470279
20
332.96251284201071
10
531.83848360470267
20
332.96251284201071
0
LWPOLYLINE
5
153
100
AcDbEntity
8
0
100
AcDbPolyline
90
6
70
1
43
0.0
10
537.83848360470279
20
309.57020799659722
10
540.83848360470279
20
314.76636041930385
10
537.83848360470279
20
319.96251284201054
10
531.83848360470267
20
319.96251284201054
10
528.83848360470267
20
314.76636041930385
10
531.83848360470267
20
309.57020799659722
0
LWPOLYLINE
5
154
100
AcDbEntity
8
0
100
AcDbPolyline
90
6
70
1
43
0.0
10
548.8384836047029
20
316.07020799659728
10
551.8384836047029
20
321.26636041930396
10
548.8384836047029
20
326.46251284201065
10
542.8384836047029
20
326.46251284201065
10
539.83848360470279
20
321.26636041930396
10
542.83848360470279
20
316.07020799659728
0
LWPOLYLINE
5
155
100
AcDbEntity
8
0
100
AcDbPolyline
90
6
70
1
43
0.0
10
539.83848360470279
20
347.26636041930419
10
542.83848360470279
20
342.0702079965975
10
548.8384836047029
20
342.0702079965975
10
551.8384836047029
20
347.26636041930419
10
548.8384836047029
20
352.46251284201088
10
542.83848360470279
20
352.46251284201088
0
LWPOLYLINE
5
156
100
AcDbEntity
8
0
100
AcDbPolyline
90
6
70
1
43
0.0
10
551.8384836047029
20
308.26636041930379
10
548.8384836047029
20
313.46251284201048
10
542.8384836047029
20
313.46251284201048
10
539.83848360470279
20
308.26636041930379
10
542.83848360470279
20
303.07020799659716
10
548.8384836047029
20
303.07020799659716
0
LWPOLYLINE
5
157
100
AcDbEntity
8
0
100
AcDbPolyline
90
6
70
1
43
0.0
10
520.54529643286105
20
316.07020799659728
10
526.54529643286116
20
316.07020799659728
10
529.54529643286128
20
321.26636041930396
10
526.54529643286116
20
326.46251284201065
10
520.54529643286105
20
326.4625128420106
10
517.54529643286105
20
321.26636041930396
0
LWPOLYLINE
5
158
100
AcDbEntity
8
0
100
AcDbPolyline
90
6
70
1
43
0.0
10
518.54529643286116
20
314.76636041930385
10
515.54529643286105
20
319.96251284201054
10
509.54529643286099
20
319.96251284201054
10
506.54529643286094
20
314.76636041930385
10
509.54529643286099
20
309.57020799659722
10
515.54529643286105
20
309.57020799659722
0
LWPOLYLINE
5
159
100
AcDbEntity
8
0
100
AcDbPolyline
90
6
70
1
43
0.0
10
562.83848360470313
20
314.76636041930391
10
559.83848360470301
20
319.9625128420106
10
553.83848360470301
20
319.96251284201054
10
550.8384836047029
20
314.76636041930385
10
553.83848360470301
20
309.57020799659722
10
559.83848360470301
20
309.57020799659722
0
LWPOLYLINE
5
160
100
AcDbEntity
8
0
100
AcDbPolyline
90
6
70
1
43
0.0
10
531.83848360470267
20
358.96251284201094
10
528.83848360470267
20
353.76636041930425
10
531.83848360470267
20
348.57020799659756
10
537.83848360470279
20
348.57020799659756
10
540.83848360470279
20
353.76636041930431
10
537.83848360470279
20
358.96251284201099
0
LWPOLYLINE
5
161
100
AcDbEntity
8
0
100
AcDbPolyline
90
6
70
1
43
0.0
10
528.83848360470267
20
340.76636041930414
10
531.83848360470267
20
335.57020799659745
10
537.83848360470279
20
335.57020799659745
10
540.83848360470279
20
340.76636041930414
10
537.83848360470279
20
345.96251284201082
10
531.83848360470267
20
345.96251284201082
0
LWPOLYLINE
5
162
100
AcDbEntity
8
0
100
AcDbPolyline
90
6
70
1
43
0.0
10
539.83848360470279
20
334.26636041930408
10
542.83848360470279
20
329.07020799659739
10
548.8384836047029
20
329.07020799659739
10
551.8384836047029
20
334.26636041930408
10
548.8384836047029
20
339.46251284201077
10
542.83848360470279
20
339.46251284201077
0
LWPOLYLINE
5
163
100
AcDbEntity
8
0
100
AcDbPolyline
90
84
70
1
43
0.0
10
625.83848360470381
20
260.26636041930328
10
625.83848360470381
20
239.26636011010405
10
602.33848360470358
20
239.26636011010402
10
602.33848360470347
20
235.26635914152848
10
587.33848360470336
20
235.26635914152848
10
587.33848360470336
20
239.26636011010402
10
572.33848360470324
20
239.26636011010402
10
572.33848360470324
20
235.26635914152848
10
557.33848360470301
20
235.26635914152848
10
557.33848360470301
20
239.26636011010402
10
542.33848360470279
20
239.26636011010402
10
542.33848360470279
20
235.26635914152848
10
527.33848360470267
20
235.26635914152848
10
527.33848360470256
20
239.26636011010402
10
512.33848360470245
20
239.26636011010402
10
512.33848360470245
20
235.26635914152848
10
497.33848360470233
20
235.26635914152848
10
497.33848360470233
20
239.26636011010402
10
482.33848360470222
20
239.26636011010402
10
482.33848360470211
20
235.26635914152848
10
467.33848360470199
20
235.26635914152848
10
467.33848360470199
20
239.26636011010402
10
443.83848360470165
20
239.26636011010402
10
443.83848360470165
20
260.26636041930317
10
439.83848360470165
20
260.26636041930328
10
439.83848360470165
20
275.26636041930345
10
443.83848360470165
20
275.26636041930345
10
443.83848360470165
20
290.26636041930351
10
439.83848360470165
20
290.26636041930362
10
439.83848360470165
20
305.26636041930374
10
443.83848360470165
20
305.26636041930368
10
443.83848360470165
20
320.26636041930385
10
439.83848360470165
20
320.26636041930385
10
439.83848360470165
20
335.26636041930402
10
443.83848360470165
20
335.26636041930402
10
443.83848360470165
20
350.26636041930408
10
439.83848360470165
20
350.26636041930425
10
439.83848360470165
20
365.26636041930436
10
443.83848360470165
20
365.26636041930431
10
443.83848360470165
20
380.26636041930436
10
439.83848360470165
20
380.26636041930453
10
439.83848360470165
20
395.26636041930465
10
443.83848360470165
20
395.26636041930465
10
443.83848360470159
20
416.26636072850397
10
467.33848360470188
20
416.26635914153036
10
467.33848360470199
20
420.26636011010589
10
482.33848360470211
20
420.26636011010589
10
482.33848360470211
20
416.26635914153036
10
497.33848360470228
20
416.26635914153036
10
497.33848360470233
20
420.26636011010589
10
512.33848360470245
20
420.26636011010589
10
512.33848360470245
20
416.26635914153036
10
527.33848360470256
20
416.26635914153036
10
527.33848360470267
20
420.26636011010589
10
542.33848360470279
20
420.26636011010589
10
542.33848360470279
20
416.26635914153036
10
557.33848360470301
20
416.26635914153036
10
557.33848360470301
20
420.26636011010589
10
572.33848360470324
20
420.26636011010589
10
572.33848360470324
20
416.26635914153036
10
587.33848360470336
20
416.26635914153042
10
587.33848360470336
20
420.26636011010595
10
602.33848360470347
20
420.26636011010589
10
602.33848360470347
20
416.26635914153036
10
625.83848360470381
20
416.26636072850403
10
625.83848360470381
20
395.26636041930476
10
629.83848360470381
20
395.26636041930465
10
629.83848360470574
20
380.26636041930692
10
625.83848360470381
20
380.26636041930453
10
625.83848360470381
20
365.26636041930436
10
629.83848360470381
20
365.26636041930436
10
629.83848360470483
20
350.26636041930664
10
625.83848360470381
20
350.26636041930425
10
625.83848360470381
20
335.26636041930408
10
629.83848360470381
20
335.26636041930408
10
629.83848360470392
20
320.26636041930379
10
625.83848360470381
20
320.26636041930396
10
625.83848360470381
20
305.26636041930379
10
629.83848360470381
20
305.26636041930379
10
629.83848360470324
20
290.26636041930607
10
625.83848360470381
20
290.26636041930362
10
625.83848360470381
20
275.26636041930345
10
629.83848360470392
20
275.26636041930345
10
629.83848360470245
20
260.26636041930573
0
LWPOLYLINE
5
164
100
AcDbEntity
8
0
100
AcDbPolyline
90
80
70
1
43
0.0
10
572.54940169642919
20
646.68992087019149
10
572.54940169642919
20
650.6899208701916
10
587.54940169642919
20
650.6899208701916
10
587.54940169642919
20
646.68992087019149
10
602.54940169642919
20
646.68992087019149
10
602.54940169642919
20
650.6899208701916
10
630.04940169642907
20
650.6899208701916
10
630.04940169642896
20
636.6899208701916
10
626.04940169642907
20
636.6899208701916
10
626.04940169642907
20
621.68992087019149
10
630.04940169642907
20
621.6899208701916
10
630.04940169642907
20
606.68992087019149
10
626.04940169642907
20
606.68992087019149
10
626.04940169642919
20
591.68992087019137
10
630.04940169642919
20
591.68992087019137
10
630.04940169642919
20
576.68992087019137
10
626.04940169642919
20
576.68992087019137
10
626.04940169642919
20
561.68992087019137
10
630.04940169642919
20
561.68992087019137
10
630.04940169642919
20
546.68992087019126
10
626.04940169642919
20
546.68992087019126
10
626.04940169642919
20
531.68992087019114
10
630.04940169642919
20
531.68992087019126
10
630.04940169642919
20
516.68992087019114
10
626.04940169642919
20
516.68992087019114
10
626.04940169642919
20
501.68992087019114
10
630.04940169642919
20
501.6899208701912
10
630.04940169642919
20
486.68992087019103
10
626.04940169642919
20
486.68992087019114
10
626.04940169642919
20
471.68992087019103
10
630.04940169642919
20
471.68992087019103
10
630.04940169642919
20
456.68992087019097
10
626.0494016964293
20
456.68992087019103
10
626.0494016964293
20
441.68992087019097
10
630.0494016964293
20
441.68992087019097
10
630.0494016964293
20
430.68992087019097
10
440.04940169642964
20
430.68992087019075
10
440.04940169642964
20
441.6899208701908
10
444.04940169642964
20
441.6899208701908
10
444.04940169642964
20
456.68992087019086
10
440.04940169642964
20
456.6899208701908
10
440.04940169642964
20
471.68992087019086
10
444.04940169642964
20
471.68992087019086
10
444.04940169642964
20
486.68992087019092
10
440.04940169642958
20
486.68992087019086
10
440.04940169642958
20
501.68992087019092
10
444.04940169642953
20
501.68992087019092
10
444.04940169642953
20
516.68992087019103
10
440.04940169642958
20
516.68992087019103
10
440.04940028081927
20
531.68992259872573
10
444.04940028081921
20
531.68992259872573
10
444.04940028081916
20
546.68992259872584
10
440.04940028081921
20
546.68992259872584
10
440.04940169642958
20
561.68992087019114
10
444.04940169642947
20
561.68992087019114
10
444.04940169642947
20
576.68992087019114
10
440.04940169642953
20
576.68992087019114
10
440.04940169642953
20
591.68992087019114
10
444.04940169642947
20
591.68992087019114
10
444.04940169642947
20
606.68992087019126
10
440.04940169642941
20
606.68992087019126
10
440.04940169642941
20
621.68992087019137
10
444.04940169642941
20
621.68992087019126
10
444.04940169642941
20
636.68992087019137
10
440.04940169642941
20
636.68992087019137
10
440.04940169642941
20
650.68992087019137
10
467.54940169642936
20
650.6899208701916
10
467.54940169642936
20
646.68992087019149
10
482.54940169642936
20
646.68992087019137
10
482.5494016964293
20
650.68992087019137
10
497.5494016964293
20
650.6899208701916
10
497.5494016964293
20
646.68992087019149
10
512.5494016964293
20
646.68992087019149
10
512.54940169642919
20
650.6899208701916
10
527.5494016964293
20
650.6899208701916
10
527.54940169642919
20
646.68992087019149
10
542.54940169642919
20
646.68992087019149
10
542.54940169642919
20
650.6899208701916
10
557.54940169642919
20
650.6899208701916
10
557.54940169642919
20
646.68992087019149
0
CIRCLE
5
165
100
AcDbEntity
8
0
100
AcDbCircle
10
310.14661571111014
20
629.57149186528954
30
0
40
2.0000005960464495
210
-0
220
0
230
1
0
CIRCLE
5
166
100
AcDbEntity
8
0
100
AcDbCircle
10
327.14661577816548
20
629.57149186528966
30
0
40
2.0000005960464495
210
-0
220
0
230
1
0
CIRCLE
5
167
100
AcDbEntity
8
0
100
AcDbCircle
10
344.14661584522082
20
629.57149186528977
30
0
40
2.0000005960464495
210
-0
220
0
230
1
0
LWPOLYLINE
5
168
100
AcDbEntity
8
0
100
AcDbPolyline
90
40
70
1
43
0.0
10
304.64661559190085
20
634.57149119473729
10
304.64661559190085
20
638.57149119473729
10
319.64661559190091
20
638.5714911947374
10
319.64661559190091
20
634.5714911947374
10
334.64661559190097
20
634.57149119473752
10
334.64661559190097
20
638.57149119473752
10
349.64661559190108
20
638.57149119473752
10
349.64661559190108
20
634.57149119473752
10
364.64661559190114
20
634.57149119473763
10
364.64661559190114
20
638.57149119473763
10
379.6466155919012
20
638.57149119473763
10
379.6466155919012
20
634.57149119473775
10
394.64661559190125
20
634.57149119473775
10
394.64661559190125
20
638.57149119473775
10
402.48353901035131
20
638.57149119473775
10
407.14661559190131
20
648.57149119473775
10
422.14661559190142
20
648.57149119473786
10
422.14661559190142
20
633.57149119473786
10
418.15005919314638
20
633.57149119473786
10
418.15005919314638
20
618.57149119473797
10
422.14661559190131
20
618.57149119473797
10
422.14661559190131
20
603.57149119473797
10
418.14661559190131
20
603.57149119473797
10
418.14661559190131
20
588.57149119473797
10
236.14661559190046
20
588.57149119473706
10
236.14661559190051
20
603.57149119473706
10
232.14661559190046
20
603.57149119473695
10
232.14661559190051
20
618.57149119473706
10
236.14661559190051
20
618.57149119473706
10
236.14661559190057
20
633.57149119473695
10
232.14661559190051
20
633.57149119473695
10
232.14661559190057
20
648.57149119473684
10
247.14661559190063
20
648.57149119473706
10
251.80969217345063
20
638.57149119473695
10
259.64661559190068
20
638.57149119473706
10
259.64661559190068
20
634.57149119473706
10
274.64661559190074
20
634.57149119473718
10
274.64661559190074
20
638.57149119473718
10
289.64661559190074
20
638.57149119473729
10
289.64661559190074
20
634.57149119473729
0
LWPOLYLINE
5
169
100
AcDbEntity
8
0
100
AcDbPolyline
90
8
70
1
43
0.0
10
302.1466155919008
20
619.57149119473729
10
302.14661559190074
20
595.5714911947374
42
0.41421356237309159
10
305.14661559190074
20
592.5714911947374
10
349.14661559190102
20
592.57149119473763
42
0.41421356237310197
10
352.14661559190097
20
595.57149119473775
10
352.14661559190108
20
619.57149119473752
42
0.41421356237308815
10
349.14661559190108
20
622.57149119473763
10
305.1466155919008
20
622.57149119473729
42
0.41421356237309503
0
LWPOLYLINE
5
170
100
AcDbEntity
8
0
100
AcDbPolyline
90
40
70
1
43
0.0
10
97.80307279188726
20
596.65435861484616
10
97.803072791887246
20
600.65435861484605
10
82.803072791887317
20
600.65435861484605
10
82.803072791887331
20
596.65435861484616
10
67.803072791887416
20
596.65435861484616
10
67.803072791887402
20
600.65435861484616
10
52.803072791887473
20
600.65435861484616
10
52.80307279188748
20
596.65435861484616
10
44.966149373437517
20
596.65435861484616
10
40.30307279188758
20
586.65435861484627
10
25.303072791887647
20
586.65435861484627
10
25.303072791887598
20
601.65435861484616
10
29.30307279188758
20
601.65435861484616
10
29.30307279188753
20
616.65435861484616
10
25.303072791887558
20
616.65435861484605
10
25.303072791887509
20
631.65435861484593
10
29.303072791887491
20
631.65435861484605
10
29.303072791887423
20
646.65435861484582
10
211.30307279188654
20
646.65435861484571
10
211.30307279188656
20
631.65435861484571
10
215.30307279188656
20
631.65435861484582
10
215.30307279188659
20
616.65435861484593
10
211.30651639313169
20
616.65435861484593
10
211.30651639313169
20
601.65435861484593
10
215.30307279188665
20
601.65435861484593
10
215.30307279188668
20
586.65435861484605
10
200.30307279188679
20
586.65435861484605
10
195.63999621033676
20
596.65435861484605
10
187.80307279188679
20
596.65435861484605
10
187.80307279188679
20
600.65435861484605
10
172.80307279188688
20
600.65435861484605
10
172.80307279188688
20
596.65435861484605
10
157.80307279188696
20
596.65435861484605
10
157.80307279188693
20
600.65435861484605
10
142.80307279188702
20
600.65435861484605
10
142.80307279188702
20
596.65435861484616
10
127.80307279188712
20
596.65435861484605
10
127.8030727918871
20
600.65435861484605
10
112.80307279188717
20
600.65435861484605
10
112.80307279188719
20
596.65435861484616
0
LWPOLYLINE
5
171
100
AcDbEntity
8
0
100
AcDbPolyline
90
4
70
1
43
0.0
10
153.30307279188685
20
631.65435861484582
10
87.303072791887189
20
631.65435861484593
42
0.99999999999999989
10
87.303072791887217
20
627.65435861484593
10
153.30307279188688
20
627.65435861484593
42
0.99999999999999989
0
LWPOLYLINE
5
172
100
AcDbEntity
8
0
100
AcDbPolyline
90
4
70
1
43
0.0
10
87.303072791887217
20
619.65435861484605
10
153.3030727918869
20
619.65435861484593
42
0.99999999999999989
10
153.30307279188688
20
623.65435861484593
10
87.303072791887217
20
623.65435861484593
42
0.99999999999999989
0
LWPOLYLINE
5
173
100
AcDbEntity
8
0
100
AcDbPolyline
90
4
70
1
43
0.0
10
153.3030727918869
20
615.65435861484593
10
87.303072791887246
20
615.65435861484605
42
0.99999999999999989
10
87.303072791887246
20
611.65435861484605
10
153.3030727918869
20
611.65435861484593
42
0.99999999999999989
0
ENDSEC
0
SECTION
2
OBJECTS
0
DICTIONARY
5
C
100
AcDbDictionary
3
ACAD_GROUP
350
D
3
ACAD_MLINESTYLE
350
17
0
DICTIONARY
5
D
100
AcDbDictionary
0
DICTIONARY
5
1A
330
C
100
AcDbDictionary
0
DICTIONARY
5
17
100
AcDbDictionary
0
ENDSEC
0
EOF
